PathFileType	4	(X/Y/Z) abd_0kg_1.trc																										
DataRate	CameraRate	NumFrames	NumMarkers	Units	OrigDataRate	OrigDataStartFrame	OrigNumFrames																					
100	100	53	9	mm	100	273	1091																					
Frame#	Time	gu			centelbow			EpL			centpxt8			centijc7			ij			ts			aa			ai		
		X1	Y1	Z1	X2	Y2	Z2	X3	Y3	Z3	X4	Y4	Z4	X5	Y5	Z5	X6	Y6	Z6	X7	Y7	Z7	X8	Y8	Z8	X9	Y9	Z9  
272	2.72	-76.268	-21.404	164.963	-112.166	-263.827	195.407	-91.826	-259.673	220.074	-46.816	-153.158	-8.669	-46.816	31.938	-8.669	0	0	0	-136.981	30.819	60.566	-99.381	17.059	172.912	-161.452	-80.027	60.713
273	2.73	-76.35	-21.23	164.975	-112.395	-263.664	195.152	-92.011	-259.56	219.792	-46.816	-153.158	-8.669	-46.816	31.938	-8.669	0	0	0	-136.932	30.915	60.536	-99.326	17.161	172.881	-161.391	-79.934	60.686
274	2.74	-76.547	-20.984	164.991	-112.696	-263.432	194.93	-92.284	-259.368	219.551	-46.816	-153.158	-8.669	-46.816	31.938	-8.669	0	0	0	-136.835	31.122	60.532	-99.228	17.384	172.879	-161.263	-79.733	60.687
275	2.75	-76.778	-20.796	164.942	-113.039	-263.256	194.653	-92.611	-259.227	219.268	-46.816	-153.158	-8.669	-46.816	31.938	-8.669	0	0	0	-136.673	31.237	60.489	-99.072	17.519	172.84	-161.077	-79.624	60.653
276	2.76	-76.772	-20.779	164.839	-113.184	-263.24	194.349	-92.752	-259.245	218.967	-46.816	-153.158	-8.669	-46.816	31.938	-8.669	0	0	0	-136.527	31.109	60.405	-98.945	17.411	172.765	-160.931	-79.752	60.584
277	2.77	-76.552	-20.842	164.77	-113.125	-263.299	194.113	-92.7	-259.333	218.741	-46.816	-153.158	-8.669	-46.816	31.938	-8.669	0	0	0	-136.548	30.902	60.332	-98.996	17.228	172.705	-160.958	-79.957	60.53
278	2.78	-76.441	-20.81	164.769	-113.133	-263.269	193.955	-92.724	-259.324	218.599	-46.816	-153.158	-8.669	-46.816	31.938	-8.669	0	0	0	-136.746	30.908	60.291	-99.224	17.271	172.679	-161.133	-79.956	60.512
279	2.79	-76.524	-20.703	164.857	-113.307	-263.168	193.881	-92.918	-259.241	218.546	-46.816	-153.158	-8.669	-46.816	31.938	-8.669	0	0	0	-136.944	31.135	60.258	-99.448	17.547	172.66	-161.269	-79.743	60.499
280	2.8	-76.614	-20.688	165.002	-113.51	-263.154	193.863	-93.147	-259.247	218.551	-46.816	-153.158	-8.669	-46.816	31.938	-8.669	0	0	0	-137.061	31.326	60.204	-99.598	17.779	172.623	-161.325	-79.565	60.456
281	2.81	-76.602	-20.771	165.065	-113.639	-263.238	193.742	-93.302	-259.355	218.456	-46.816	-153.158	-8.669	-46.816	31.938	-8.669	0	0	0	-137.166	31.343	60.148	-99.765	17.819	172.59	-161.406	-79.553	60.402
282	2.82	-76.513	-20.812	164.985	-113.674	-263.286	193.435	-93.37	-259.428	218.18	-46.816	-153.158	-8.669	-46.816	31.938	-8.669	0	0	0	-137.207	31.262	60.144	-99.893	17.763	172.617	-161.446	-79.635	60.403
283	2.83	-76.42	-20.784	164.884	-113.7	-263.272	193.068	-93.442	-259.439	217.854	-46.816	-153.158	-8.669	-46.816	31.938	-8.669	0	0	0	-137.087	31.151	60.201	-99.86	17.689	172.707	-161.322	-79.746	60.475
284	2.84	-76.451	-20.757	164.83	-113.872	-263.258	192.712	-93.676	-259.452	217.552	-46.816	-153.158	-8.669	-46.816	31.938	-8.669	0	0	0	-136.918	31.051	60.25	-99.758	17.621	172.783	-161.133	-79.851	60.535
285	2.85	-76.61	-20.723	164.739	-114.158	-263.241	192.304	-94.041	-259.458	217.212	-46.816	-153.158	-8.669	-46.816	31.938	-8.669	0	0	0	-136.84	31.035	60.237	-99.73	17.623	172.788	-161.026	-79.873	60.518
286	2.86	-76.703	-20.713	164.568	-114.341	-263.247	191.856	-94.32	-259.477	216.843	-46.816	-153.158	-8.669	-46.816	31.938	-8.669	0	0	0	-136.789	31.098	60.183	-99.719	17.697	172.749	-160.949	-79.816	60.457
287	2.87	-76.625	-20.834	164.378	-114.365	-263.377	191.447	-94.453	-259.611	216.522	-46.816	-153.158	-8.669	-46.816	31.938	-8.669	0	0	0	-136.679	31.132	60.124	-99.642	17.749	172.703	-160.825	-79.784	60.404
288	2.88	-76.489	-21.029	164.187	-114.36	-263.575	191.044	-94.562	-259.815	216.209	-46.816	-153.158	-8.669	-46.816	31.938	-8.669	0	0	0	-136.612	31.1	60.07	-99.603	17.737	172.66	-160.757	-79.817	60.363
289	2.89	-76.447	-21.1	163.986	-114.409	-263.66	190.589	-94.728	-259.905	215.847	-46.816	-153.158	-8.669	-46.816	31.938	-8.669	0	0	0	-136.698	31.073	59.999	-99.715	17.733	172.6	-160.849	-79.843	60.311
290	2.9	-76.564	-20.988	163.835	-114.518	-263.579	190.16	-94.97	-259.821	215.521	-46.816	-153.158	-8.669	-46.816	31.938	-8.669	0	0	0	-136.864	31.091	59.901	-99.906	17.776	172.514	-161.025	-79.822	60.236
291	2.91	-76.724	-20.82	163.822	-114.584	-263.454	189.899	-95.191	-259.677	215.376	-46.816	-153.158	-8.669	-46.816	31.938	-8.669	0	0	0	-136.952	31.103	59.816	-100.015	17.806	172.438	-161.12	-79.809	60.168
292	2.92	-76.667	-20.814	163.943	-114.438	-263.481	189.843	-95.209	-259.678	215.44	-46.816	-153.158	-8.669	-46.816	31.938	-8.669	0	0	0	-136.895	31.079	59.782	-99.975	17.787	172.409	-161.063	-79.833	60.134
293	2.93	-76.353	-21.041	164.08	-114.107	-263.724	189.854	-95.041	-259.895	215.569	-46.816	-153.158	-8.669	-46.816	31.938	-8.669	0	0	0	-136.791	31.046	59.788	-99.898	17.751	172.424	-160.957	-79.867	60.131
294	2.94	-76.076	-21.245	164.169	-113.827	-263.946	189.772	-94.926	-260.098	215.605	-46.816	-153.158	-8.669	-46.816	31.938	-8.669	0	0	0	-136.744	31.028	59.835	-99.897	17.73	172.486	-160.912	-79.884	60.166
295	2.95	-75.986	-21.168	164.305	-113.67	-263.909	189.62	-94.942	-260.047	215.576	-46.816	-153.158	-8.669	-46.816	31.938	-8.669	0	0	0	-136.73	31.04	59.949	-99.932	17.734	172.616	-160.906	-79.87	60.264
296	2.96	-75.844	-20.946	164.477	-113.405	-263.739	189.475	-94.855	-259.862	215.558	-46.816	-153.158	-8.669	-46.816	31.938	-8.669	0	0	0	-136.701	31.075	60.096	-99.931	17.748	172.769	-160.889	-79.832	60.388
297	2.97	-75.426	-20.86	164.444	-112.859	-263.693	189.241	-94.485	-259.789	215.444	-46.816	-153.158	-8.669	-46.816	31.938	-8.669	0	0	0	-136.615	31.131	60.148	-99.85	17.776	172.819	-160.815	-79.774	60.416
298	2.98	-74.874	-20.896	164.082	-112.187	-263.757	188.794	-93.989	-259.814	215.113	-46.816	-153.158	-8.669	-46.816	31.938	-8.669	0	0	0	-136.427	31.235	60.033	-99.661	17.859	172.701	-160.634	-79.669	60.283
299	2.99	-74.486	-20.944	163.658	-111.716	-263.829	188.252	-93.71	-259.852	214.698	-46.816	-153.158	-8.669	-46.816	31.938	-8.669	0	0	0	-136.229	31.367	59.854	-99.468	17.973	172.522	-160.441	-79.535	60.088
300	3	-74.359	-21.132	163.532	-111.6	-264.039	187.895	-93.815	-260.039	214.486	-46.816	-153.158	-8.669	-46.816	31.938	-8.669	0	0	0	-136.163	31.441	59.769	-99.423	18.007	172.439	-160.398	-79.457	59.967
301	3.01	-74.354	-21.481	163.658	-111.658	-264.405	187.76	-94.12	-260.385	214.512	-46.816	-153.158	-8.669	-46.816	31.938	-8.669	0	0	0	-136.175	31.412	59.824	-99.475	17.902	172.498	-160.46	-79.474	59.955
302	3.02	-74.383	-21.616	163.657	-111.678	-264.559	187.574	-94.405	-260.502	214.492	-46.816	-153.158	-8.669	-46.816	31.938	-8.669	0	0	0	-136.129	31.352	59.926	-99.484	17.73	172.605	-160.494	-79.517	59.964
303	3.03	-74.528	-21.364	163.397	-111.766	-264.325	187.221	-94.775	-260.214	214.311	-46.816	-153.158	-8.669	-46.816	31.938	-8.669	0	0	0	-136.019	31.35	59.937	-99.434	17.585	172.617	-160.489	-79.496	59.858
304	3.04	-74.746	-21.217	163.122	-112.066	-264.17	186.901	-95.376	-260.006	214.169	-46.816	-153.158	-8.669	-46.816	31.938	-8.669	0	0	0	-135.869	31.385	59.817	-99.344	17.447	172.496	-160.463	-79.434	59.598
305	3.05	-74.796	-21.555	162.883	-112.349	-264.475	186.635	-95.97	-260.263	214.083	-46.816	-153.158	-8.669	-46.816	31.938	-8.669	0	0	0	-135.719	31.416	59.638	-99.252	17.279	172.311	-160.44	-79.374	59.255
306	3.06	-74.619	-21.977	162.442	-112.326	-264.87	186.216	-96.257	-260.601	213.838	-46.816	-153.158	-8.669	-46.816	31.938	-8.669	0	0	0	-135.65	31.494	59.463	-99.248	17.147	172.13	-160.484	-79.27	58.9
307	3.07	-74.501	-22.05	161.885	-112.161	-264.94	185.772	-96.415	-260.588	213.567	-46.816	-153.158	-8.669	-46.816	31.938	-8.669	0	0	0	-135.702	31.636	59.342	-99.381	17.082	172.009	-160.632	-79.105	58.591
308	3.08	-74.689	-21.979	161.598	-112.232	-264.866	185.697	-96.839	-260.41	213.672	-46.816	-153.158	-8.669	-46.816	31.938	-8.669	0	0	0	-135.858	31.76	59.307	-99.647	17.004	171.983	-160.879	-78.959	58.366
309	3.09	-75.092	-21.978	161.568	-112.531	-264.85	185.975	-97.52	-260.273	214.138	-46.816	-153.158	-8.669	-46.816	31.938	-8.669	0	0	0	-136.087	31.811	59.275	-100.014	16.863	171.97	-161.199	-78.885	58.146
310	3.1	-75.49	-21.856	161.415	-112.789	-264.709	186.218	-98.176	-259.998	214.567	-46.816	-153.158	-8.669	-46.816	31.938	-8.669	0	0	0	-136.353	31.815	59.121	-100.434	16.696	171.842	-161.556	-78.859	57.822
311	3.11	-75.764	-21.647	161.083	-112.922	-264.475	186.34	-98.721	-259.619	214.874	-46.816	-153.158	-8.669	-46.816	31.938	-8.669	0	0	0	-136.581	31.834	58.883	-100.812	16.567	171.631	-161.88	-78.816	57.439
312	3.12	-75.852	-21.743	160.932	-112.982	-264.521	186.705	-99.216	-259.516	215.426	-46.816	-153.158	-8.669	-46.816	31.938	-8.669	0	0	0	-136.68	31.924	58.685	-101.047	16.529	171.46	-162.072	-78.703	57.119
313	3.13	-75.772	-22.205	161.12	-112.96	-264.909	187.508	-99.654	-259.742	216.416	-46.816	-153.158	-8.669	-46.816	31.938	-8.669	0	0	0	-136.665	32.056	58.534	-101.166	16.564	171.337	-162.129	-78.553	56.867
314	3.14	-75.664	-22.598	161.337	-112.834	-265.223	188.462	-99.994	-259.874	217.547	-46.816	-153.158	-8.669	-46.816	31.938	-8.669	0	0	0	-136.636	32.139	58.372	-101.292	16.582	171.215	-162.145	-78.459	56.624
315	3.15	-75.7	-22.576	161.3	-112.707	-265.128	189.287	-100.325	-259.578	218.533	-46.816	-153.158	-8.669	-46.816	31.938	-8.669	0	0	0	-136.665	32.151	58.186	-101.507	16.559	171.082	-162.207	-78.438	56.372
316	3.16	-75.945	-22.255	161.065	-112.72	-264.729	190.011	-100.789	-258.963	219.402	-46.816	-153.158	-8.669	-46.816	31.938	-8.669	0	0	0	-136.784	32.145	57.963	-101.832	16.549	170.923	-162.37	-78.433	56.115
317	3.17	-76.206	-21.92	160.714	-112.752	-264.307	190.669	-101.271	-258.321	220.194	-46.816	-153.158	-8.669	-46.816	31.938	-8.669	0	0	0	-136.881	32.087	57.699	-102.159	16.523	170.734	-162.54	-78.474	55.856
318	3.18	-76.254	-21.718	160.31	-112.613	-264.006	191.272	-101.586	-257.801	220.926	-46.816	-153.158	-8.669	-46.816	31.938	-8.669	0	0	0	-136.734	31.871	57.427	-102.28	16.363	170.552	-162.489	-78.669	55.613
319	3.19	-76.232	-21.638	160.022	-112.52	-263.808	191.972	-101.963	-257.39	221.75	-46.816	-153.158	-8.669	-46.816	31.938	-8.669	0	0	0	-136.383	31.551	57.18	-102.236	16.112	170.407	-162.216	-78.971	55.39
320	3.2	-76.427	-21.46	159.876	-112.758	-263.487	192.849	-102.686	-256.851	222.748	-46.816	-153.158	-8.669	-46.816	31.938	-8.669	0	0	0	-136.163	31.353	56.978	-102.326	16.011	170.311	-162.007	-79.166	55.217
321	3.21	-76.808	-20.938	159.817	-113.195	-262.8	193.921	-103.613	-255.933	223.929	-46.816	-153.158	-8.669	-46.816	31.938	-8.669	0	0	0	-136.223	31.375	56.819	-102.663	16.17	170.253	-162.023	-79.156	55.116
322	3.22	-77.157	-20.356	160.056	-113.646	-262.027	195.388	-104.557	-254.918	225.492	-46.816	-153.158	-8.669	-46.816	31.938	-8.669	0	0	0	-136.42	31.397	56.692	-103.091	16.325	170.212	-162.196	-79.141	55.06
323	3.23	-77.351	-20.308	160.754	-114.136	-261.745	197.353	-105.528	-254.395	227.541	-46.816	-153.158	-8.669	-46.816	31.938	-8.669	0	0	0	-136.576	31.218	56.615	-103.452	16.222	170.205	-162.4	-79.308	55.026
324	3.24	-77.418	-20.732	161.512	-114.647	-261.901	199.405	-106.487	-254.318	229.659	-46.816	-153.158	-8.669	-46.816	31.938	-8.669	0	0	0	-136.655	30.939	56.571	-103.723	15.979	170.222	-162.568	-79.567	55.003
